Barlow-Regular.ufo
<glyph name="exclam" format="1">
  <advance width="299"/>
  <unicode hex="0021"/>
  <outline>
    <contour>
      <point x="190" y="233" type="line"/>
      <point x="200" y="700" type="line"/>
      <point x="100" y="700" type="line"/>
      <point x="110" y="233" type="line"/>
    </contour>
    <contour>
      <point x="189" y="3"/>
      <point x="219" y="34"/>
      <point x="219" y="74" type="curve" smooth="yes"/>
      <point x="219" y="112"/>
      <point x="184" y="143"/>
      <point x="148" y="143" type="curve" smooth="yes"/>
      <point x="112" y="143"/>
      <point x="78" y="112"/>
      <point x="78" y="74" type="curve" smooth="yes"/>
      <point x="78" y="34"/>
      <point x="107" y="3"/>
      <point x="148" y="3" type="curve" smooth="yes"/>
    </contour>
  </outline>
</glyph>
<glyph name="dollar" format="1">
  <advance width="474"/>
  <unicode hex="0024"/>
  <outline>
    <contour>
      <point x="349" y="-6"/>
      <point x="423" y="59"/>
      <point x="423" y="167" type="curve" smooth="yes"/>
      <point x="423" y="270"/>
      <point x="355" y="321"/>
      <point x="264" y="385" type="curve" smooth="yes"/>
      <point x="191" y="435"/>
      <point x="149" y="465"/>
      <point x="149" y="530" type="curve" smooth="yes"/>
      <point x="149" y="587"/>
      <point x="182" y="621"/>
      <point x="234" y="621" type="curve" smooth="yes"/>
      <point x="287" y="621"/>
      <point x="320" y="588"/>
      <point x="320" y="532" type="curve" smooth="yes"/>
      <point x="320" y="495" type="line"/>
      <point x="418" y="495" type="line"/>
      <point x="418" y="531" type="line" smooth="yes"/>
      <point x="418" y="640"/>
      <point x="346" y="706"/>
      <point x="235" y="706" type="curve" smooth="yes"/>
      <point x="122" y="706"/>
      <point x="51" y="639"/>
      <point x="51" y="533" type="curve" smooth="yes"/>
      <point x="51" y="418"/>
      <point x="134" y="360"/>
      <point x="208" y="309" type="curve" smooth="yes"/>
      <point x="280" y="260"/>
      <point x="325" y="231"/>
      <point x="325" y="168" type="curve" smooth="yes"/>
      <point x="325" y="112"/>
      <point x="291" y="79"/>
      <point x="238" y="79" type="curve" smooth="yes"/>
      <point x="185" y="79"/>
      <point x="155" y="114"/>
      <point x="155" y="170" type="curve" smooth="yes"/>
      <point x="155" y="205" type="line"/>
      <point x="57" y="205" type="line"/>
      <point x="57" y="164" type="line" smooth="yes"/>
      <point x="57" y="59"/>
      <point x="125" y="-6"/>
      <point x="237" y="-6" type="curve" smooth="yes"/>
    </contour>
    <contour>
      <point x="272" y="-79" type="line"/>
      <point x="270" y="26" type="line"/>
      <point x="206" y="26" type="line"/>
      <point x="204" y="-79" type="line"/>
    </contour>
    <contour>
      <point x="266" y="681" type="line"/>
      <point x="268" y="785" type="line"/>
      <point x="201" y="785" type="line"/>
      <point x="203" y="681" type="line"/>
    </contour>
  </outline>
</glyph>
<glyph name="quotesingle" format="1">
  <advance width="173"/>
  <unicode hex="0027"/>
  <outline>
    <contour>
      <point x="127" y="485" type="line"/>
      <point x="137" y="698" type="line"/>
      <point x="36" y="698" type="line"/>
      <point x="47" y="485" type="line"/>
    </contour>
  </outline>
</glyph>
<glyph name="comma" format="1">
  <advance width="245"/>
  <unicode hex="002C"/>
  <outline>
    <contour>
      <point x="123" y="-87" type="line"/>
      <point x="181" y="156" type="line"/>
      <point x="91" y="156" type="line"/>
      <point x="54" y="-87" type="line"/>
    </contour>
  </outline>
</glyph>
<glyph name="hyphen" format="1">
  <advance width="305"/>
  <unicode hex="002D"/>
  <outline>
    <contour>
      <point x="287" y="211" type="line"/>
      <point x="287" y="297" type="line"/>
      <point x="18" y="297" type="line"/>
      <point x="18" y="211" type="line"/>
    </contour>
  </outline>
</glyph>
<glyph name="period" format="1">
  <advance width="311"/>
  <unicode hex="002E"/>
  <outline>
    <contour>
      <point x="193" y="0"/>
      <point x="223" y="32"/>
      <point x="223" y="71" type="curve" smooth="yes"/>
      <point x="223" y="110"/>
      <point x="189" y="141"/>
      <point x="152" y="141" type="curve" smooth="yes"/>
      <point x="116" y="141"/>
      <point x="82" y="110"/>
      <point x="82" y="71" type="curve" smooth="yes"/>
      <point x="82" y="32"/>
      <point x="112" y="0"/>
      <point x="152" y="0" type="curve" smooth="yes"/>
    </contour>
  </outline>
</glyph>
<glyph name="slash" format="1">
  <advance width="323"/>
  <unicode hex="002F"/>
  <outline>
    <contour>
      <point x="99" y="0" type="line"/>
      <point x="323" y="700" type="line"/>
      <point x="223" y="700" type="line"/>
      <point x="0" y="0" type="line"/>
    </contour>
  </outline>
</glyph>
<glyph name="zero" format="1">
  <advance width="477"/>
  <unicode hex="0030"/>
  <outline>
    <contour>
      <point x="352" y="-9"/>
      <point x="429" y="66"/>
      <point x="429" y="179" type="curve" smooth="yes"/>
      <point x="429" y="521" type="line" smooth="yes"/>
      <point x="429" y="634"/>
      <point x="352" y="709"/>
      <point x="239" y="709" type="curve" smooth="yes"/>
      <point x="126" y="709"/>
      <point x="48" y="634"/>
      <point x="48" y="521" type="curve" smooth="yes"/>
      <point x="48" y="179" type="line" smooth="yes"/>
      <point x="48" y="66"/>
      <point x="126" y="-9"/>
      <point x="239" y="-9" type="curve" smooth="yes"/>
    </contour>
    <contour>
      <point x="185" y="82"/>
      <point x="147" y="120"/>
      <point x="147" y="178" type="curve" smooth="yes"/>
      <point x="147" y="522" type="line" smooth="yes"/>
      <point x="147" y="580"/>
      <point x="185" y="618"/>
      <point x="239" y="618" type="curve" smooth="yes"/>
      <point x="292" y="618"/>
      <point x="330" y="580"/>
      <point x="330" y="522" type="curve" smooth="yes"/>
      <point x="330" y="178" type="line" smooth="yes"/>
      <point x="330" y="120"/>
      <point x="292" y="82"/>
      <point x="239" y="82" type="curve" smooth="yes"/>
    </contour>
  </outline>
</glyph>
<glyph name="one" format="1">
  <advance width="282"/>
  <unicode hex="0031"/>
  <outline>
    <contour>
      <point x="222" y="0" type="line"/>
      <point x="222" y="700" type="line"/>
      <point x="123" y="700" type="line"/>
      <point x="123" y="0" type="line"/>
    </contour>
    <contour>
      <point x="54" y="587" type="line"/>
      <point x="123" y="604" type="line"/>
      <point x="123" y="700" type="line"/>
      <point x="54" y="665" type="line"/>
    </contour>
  </outline>
</glyph>
<glyph name="two" format="1">
  <advance width="477"/>
  <unicode hex="0032"/>
  <outline>
    <contour>
      <point x="442" y="0" type="line"/>
      <point x="442" y="91" type="line"/>
      <point x="184" y="91" type="line"/>
      <point x="357" y="318" type="line"/>
      <point x="415" y="397"/>
      <point x="434" y="457"/>
      <point x="434" y="533" type="curve" smooth="yes"/>
      <point x="434" y="646"/>
      <point x="361" y="708"/>
      <point x="240" y="708" type="curve" smooth="yes"/>
      <point x="128" y="708"/>
      <point x="52" y="638"/>
      <point x="49" y="525" type="curve"/>
      <point x="49" y="479" type="line"/>
      <point x="150" y="479" type="line"/>
      <point x="150" y="512" type="line"/>
      <point x="149" y="573"/>
      <point x="185" y="614"/>
      <point x="240" y="614" type="curve" smooth="yes"/>
      <point x="302" y="614"/>
      <point x="334" y="581"/>
      <point x="334" y="521" type="curve" smooth="yes"/>
      <point x="334" y="471"/>
      <point x="312" y="421"/>
      <point x="254" y="347" type="curve"/>
      <point x="51" y="91" type="line"/>
      <point x="51" y="0" type="line"/>
    </contour>
  </outline>
</glyph>
<glyph name="three" format="1">
  <advance width="468"/>
  <unicode hex="0033"/>
  <outline>
    <contour>
      <point x="344" y="-8"/>
      <point x="419" y="58"/>
      <point x="419" y="165" type="curve" smooth="yes"/>
      <point x="419" y="269" type="line" smooth="yes"/>
      <point x="419" y="386"/>
      <point x="354" y="462"/>
      <point x="252" y="439" type="curve"/>
      <point x="253" y="401" type="line"/>
      <point x="420" y="609" type="line"/>
      <point x="420" y="700" type="line"/>
      <point x="60" y="700" type="line"/>
      <point x="60" y="609" type="line"/>
      <point x="301" y="609" type="line"/>
      <point x="142" y="416" type="line"/>
      <point x="195" y="361" type="line"/>
      <point x="208" y="372"/>
      <point x="217" y="376"/>
      <point x="231" y="376" type="curve" smooth="yes"/>
      <point x="284" y="376"/>
      <point x="319" y="339"/>
      <point x="319" y="285" type="curve" smooth="yes"/>
      <point x="319" y="169" type="line" smooth="yes"/>
      <point x="319" y="115"/>
      <point x="284" y="78"/>
      <point x="231" y="78" type="curve" smooth="yes"/>
      <point x="178" y="78"/>
      <point x="142" y="115"/>
      <point x="142" y="169" type="curve" smooth="yes"/>
      <point x="142" y="215" type="line"/>
      <point x="42" y="215" type="line"/>
      <point x="42" y="165" type="line" smooth="yes"/>
      <point x="42" y="58"/>
      <point x="118" y="-8"/>
      <point x="231" y="-8" type="curve" smooth="yes"/>
    </contour>
  </outline>
</glyph>
<glyph name="four" format="1">
  <advance width="480"/>
  <unicode hex="0034"/>
  <outline>
    <contour>
      <point x="300" y="276" type="line"/>
      <point x="300" y="-4" type="line"/>
      <point x="400" y="-4" type="line"/>
      <point x="400" y="445" type="line"/>
      <point x="315" y="445" type="line"/>
    </contour>
    <contour>
      <point x="142" y="276" type="line"/>
      <point x="306" y="700" type="line"/>
      <point x="201" y="700" type="line"/>
      <point x="28" y="259" type="line"/>
      <point x="28" y="186" type="line"/>
      <point x="452" y="186" type="line"/>
      <point x="452" y="276" type="line"/>
    </contour>
  </outline>
</glyph>
<glyph name="five" format="1">
  <advance width="436"/>
  <unicode hex="0035"/>
  <outline>
    <contour>
      <point x="332" y="-9"/>
      <point x="406" y="57"/>
      <point x="406" y="164" type="curve" smooth="yes"/>
      <point x="406" y="261" type="line" smooth="yes"/>
      <point x="406" y="368"/>
      <point x="345" y="435"/>
      <point x="249" y="435" type="curve" smooth="yes"/>
      <point x="153" y="435"/>
      <point x="106" y="364"/>
      <point x="106" y="287" type="curve"/>
      <point x="106" y="283" type="line"/>
      <point x="143" y="283" type="line"/>
      <point x="143" y="286" type="line" smooth="yes"/>
      <point x="143" y="324"/>
      <point x="177" y="349"/>
      <point x="222" y="349" type="curve" smooth="yes"/>
      <point x="273" y="349"/>
      <point x="307" y="312"/>
      <point x="307" y="258" type="curve" smooth="yes"/>
      <point x="307" y="168" type="line" smooth="yes"/>
      <point x="307" y="114"/>
      <point x="273" y="77"/>
      <point x="222" y="77" type="curve" smooth="yes"/>
      <point x="171" y="77"/>
      <point x="137" y="114"/>
      <point x="137" y="168" type="curve" smooth="yes"/>
      <point x="137" y="171" type="line"/>
      <point x="38" y="171" type="line"/>
      <point x="38" y="164" type="line" smooth="yes"/>
      <point x="38" y="57"/>
      <point x="111" y="-9"/>
      <point x="222" y="-9" type="curve" smooth="yes"/>
    </contour>
    <contour>
      <point x="143" y="284" type="line"/>
      <point x="144" y="609" type="line"/>
      <point x="404" y="609" type="line"/>
      <point x="404" y="700" type="line"/>
      <point x="44" y="700" type="line"/>
      <point x="45" y="284" type="line"/>
    </contour>
  </outline>
</glyph>
<glyph name="six" format="1">
  <advance width="473"/>
  <unicode hex="0036"/>
  <outline>
    <contour>
      <point x="356" y="-8"/>
      <point x="431" y="58"/>
      <point x="431" y="164" type="curve" smooth="yes"/>
      <point x="431" y="261" type="line" smooth="yes"/>
      <point x="431" y="375"/>
      <point x="361" y="435"/>
      <point x="269" y="435" type="curve" smooth="yes"/>
      <point x="178" y="435"/>
      <point x="147" y="369"/>
      <point x="133" y="334" type="curve"/>
      <point x="153" y="334" type="line"/>
      <point x="153" y="529" type="line" smooth="yes"/>
      <point x="153" y="583"/>
      <point x="189" y="620"/>
      <point x="243" y="620" type="curve" smooth="yes"/>
      <point x="296" y="620"/>
      <point x="332" y="583"/>
      <point x="332" y="529" type="curve" smooth="yes"/>
      <point x="332" y="486" type="line"/>
      <point x="431" y="486" type="line"/>
      <point x="431" y="534" type="line" smooth="yes"/>
      <point x="431" y="640"/>
      <point x="356" y="708"/>
      <point x="243" y="708" type="curve" smooth="yes"/>
      <point x="129" y="708"/>
      <point x="54" y="640"/>
      <point x="54" y="534" type="curve" smooth="yes"/>
      <point x="54" y="164" type="line" smooth="yes"/>
      <point x="54" y="58"/>
      <point x="129" y="-8"/>
      <point x="243" y="-8" type="curve" smooth="yes"/>
    </contour>
    <contour>
      <point x="189" y="78"/>
      <point x="153" y="114"/>
      <point x="153" y="169" type="curve" smooth="yes"/>
      <point x="153" y="259" type="line" smooth="yes"/>
      <point x="153" y="313"/>
      <point x="189" y="350"/>
      <point x="243" y="350" type="curve" smooth="yes"/>
      <point x="296" y="350"/>
      <point x="332" y="313"/>
      <point x="332" y="259" type="curve" smooth="yes"/>
      <point x="332" y="169" type="line" smooth="yes"/>
      <point x="332" y="114"/>
      <point x="296" y="78"/>
      <point x="243" y="78" type="curve" smooth="yes"/>
    </contour>
  </outline>
</glyph>
<glyph name="seven" format="1">
  <advance width="401"/>
  <unicode hex="0037"/>
  <outline>
    <contour>
      <point x="184" y="0" type="line"/>
      <point x="383" y="609" type="line"/>
      <point x="383" y="700" type="line"/>
      <point x="18" y="700" type="line"/>
      <point x="18" y="609" type="line"/>
      <point x="278" y="609" type="line"/>
      <point x="79" y="0" type="line"/>
    </contour>
  </outline>
</glyph>
<glyph name="eight" format="1">
  <advance width="495"/>
  <unicode hex="0038"/>
  <outline>
    <contour>
      <point x="369" y="-14"/>
      <point x="447" y="61"/>
      <point x="447" y="176" type="curve" smooth="yes"/>
      <point x="447" y="227" type="line" smooth="yes"/>
      <point x="447" y="371"/>
      <point x="320" y="398"/>
      <point x="248" y="398" type="curve" smooth="yes"/>
      <point x="175" y="398"/>
      <point x="48" y="371"/>
      <point x="48" y="227" type="curve" smooth="yes"/>
      <point x="48" y="177" type="line" smooth="yes"/>
      <point x="48" y="61"/>
      <point x="126" y="-14"/>
      <point x="248" y="-14" type="curve" smooth="yes"/>
    </contour>
    <contour>
      <point x="187" y="80"/>
      <point x="147" y="124"/>
      <point x="147" y="189" type="curve" smooth="yes"/>
      <point x="147" y="226" type="line" smooth="yes"/>
      <point x="147" y="292"/>
      <point x="187" y="334"/>
      <point x="248" y="334" type="curve"/>
      <point x="308" y="334"/>
      <point x="347" y="292"/>
      <point x="347" y="226" type="curve" smooth="yes"/>
      <point x="347" y="189" type="line" smooth="yes"/>
      <point x="347" y="124"/>
      <point x="308" y="80"/>
      <point x="248" y="80" type="curve" smooth="yes"/>
    </contour>
    <contour>
      <point x="351" y="338"/>
      <point x="436" y="392"/>
      <point x="436" y="512" type="curve" smooth="yes"/>
      <point x="436" y="538" type="line" smooth="yes"/>
      <point x="436" y="647"/>
      <point x="370" y="708"/>
      <point x="248" y="708" type="curve" smooth="yes"/>
      <point x="126" y="708"/>
      <point x="58" y="647"/>
      <point x="58" y="538" type="curve" smooth="yes"/>
      <point x="58" y="512" type="line" smooth="yes"/>
      <point x="58" y="392"/>
      <point x="140" y="338"/>
      <point x="248" y="338" type="curve" smooth="yes"/>
    </contour>
    <contour>
      <point x="187" y="413"/>
      <point x="158" y="451"/>
      <point x="158" y="510" type="curve" smooth="yes"/>
      <point x="158" y="516" type="line" smooth="yes"/>
      <point x="158" y="576"/>
      <point x="187" y="614"/>
      <point x="248" y="614" type="curve" smooth="yes"/>
      <point x="308" y="614"/>
      <point x="336" y="576"/>
      <point x="336" y="516" type="curve" smooth="yes"/>
      <point x="336" y="510" type="line" smooth="yes"/>
      <point x="336" y="451"/>
      <point x="308" y="413"/>
      <point x="248" y="413" type="curve" smooth="yes"/>
    </contour>
  </outline>
</glyph>
<glyph name="colon" format="1">
  <advance width="314"/>
  <unicode hex="003A"/>
  <outline>
    <contour>
      <point x="198" y="336"/>
      <point x="229" y="368"/>
      <point x="229" y="407" type="curve" smooth="yes"/>
      <point x="229" y="446"/>
      <point x="194" y="477"/>
      <point x="158" y="477" type="curve" smooth="yes"/>
      <point x="122" y="477"/>
      <point x="87" y="446"/>
      <point x="87" y="407" type="curve" smooth="yes"/>
      <point x="87" y="368"/>
      <point x="117" y="336"/>
      <point x="158" y="336" type="curve" smooth="yes"/>
    </contour>
    <contour>
      <point x="198" y="4"/>
      <point x="229" y="35"/>
      <point x="229" y="75" type="curve" smooth="yes"/>
      <point x="229" y="113"/>
      <point x="194" y="144"/>
      <point x="158" y="144" type="curve" smooth="yes"/>
      <point x="122" y="144"/>
      <point x="87" y="113"/>
      <point x="87" y="75" type="curve" smooth="yes"/>
      <point x="87" y="35"/>
      <point x="117" y="4"/>
      <point x="158" y="4" type="curve" smooth="yes"/>
    </contour>
  </outline>
</glyph>
<glyph name="semicolon" format="1">
  <advance width="279"/>
  <unicode hex="003B"/>
  <outline>
    <contour>
      <point x="143" y="-84" type="line"/>
      <point x="191" y="153" type="line"/>
      <point x="100" y="153" type="line"/>
      <point x="75" y="-84" type="line"/>
    </contour>
    <contour>
      <point x="182" y="333"/>
      <point x="212" y="365"/>
      <point x="212" y="404" type="curve"/>
      <point x="212" y="443"/>
      <point x="178" y="474"/>
      <point x="141" y="474" type="curve" smooth="yes"/>
      <point x="105" y="474"/>
      <point x="71" y="443"/>
      <point x="71" y="404" type="curve" smooth="yes"/>
      <point x="71" y="365"/>
      <point x="101" y="333"/>
      <point x="141" y="333" type="curve" smooth="yes"/>
    </contour>
  </outline>
</glyph>
<glyph name="question" format="1">
  <advance width="441"/>
  <unicode hex="003F"/>
  <outline>
    <contour>
      <point x="255" y="209" type="line"/>
      <point x="255" y="262" type="line"/>
      <point x="255" y="357"/>
      <point x="411" y="359"/>
      <point x="411" y="526" type="curve" smooth="yes"/>
      <point x="411" y="637"/>
      <point x="337" y="709"/>
      <point x="224" y="709" type="curve" smooth="yes"/>
      <point x="108" y="709"/>
      <point x="29" y="633"/>
      <point x="29" y="521" type="curve" smooth="yes"/>
      <point x="29" y="490" type="line"/>
      <point x="129" y="486" type="line"/>
      <point x="129" y="521" type="line" smooth="yes"/>
      <point x="129" y="579"/>
      <point x="165" y="618"/>
      <point x="222" y="618" type="curve" smooth="yes"/>
      <point x="275" y="618"/>
      <point x="310" y="581"/>
      <point x="310" y="523" type="curve" smooth="yes"/>
      <point x="310" y="406"/>
      <point x="155" y="401"/>
      <point x="155" y="268" type="curve"/>
      <point x="155" y="209" type="line"/>
    </contour>
    <contour>
      <point x="246" y="0"/>
      <point x="277" y="30"/>
      <point x="277" y="67" type="curve" smooth="yes"/>
      <point x="277" y="103"/>
      <point x="245" y="133"/>
      <point x="210" y="133" type="curve" smooth="yes"/>
      <point x="174" y="133"/>
      <point x="144" y="103"/>
      <point x="144" y="67" type="curve" smooth="yes"/>
      <point x="144" y="30"/>
      <point x="173" y="0"/>
      <point x="209" y="0" type="curve" smooth="yes"/>
    </contour>
  </outline>
</glyph>
<glyph name="at" format="1">
  <advance width="873"/>
  <unicode hex="0040"/>
  <outline>
    <contour>
      <point x="632" y="-67"/>
      <point x="793" y="94"/>
      <point x="793" y="291" type="curve" smooth="yes"/>
      <point x="793" y="487"/>
      <point x="632" y="648"/>
      <point x="435" y="648" type="curve" smooth="yes"/>
      <point x="239" y="648"/>
      <point x="79" y="487"/>
      <point x="79" y="291" type="curve" smooth="yes"/>
      <point x="79" y="94"/>
      <point x="239" y="-67"/>
      <point x="435" y="-67" type="curve" smooth="yes"/>
    </contour>
    <contour>
      <point x="266" y="-18"/>
      <point x="128" y="120"/>
      <point x="128" y="291" type="curve" smooth="yes"/>
      <point x="128" y="461"/>
      <point x="266" y="599"/>
      <point x="435" y="599" type="curve" smooth="yes"/>
      <point x="605" y="599"/>
      <point x="744" y="461"/>
      <point x="744" y="291" type="curve" smooth="yes"/>
      <point x="744" y="120"/>
      <point x="605" y="-18"/>
      <point x="435" y="-18" type="curve" smooth="yes"/>
    </contour>
    <component base="a.alt" xOffset="270" yOffset="126" xScale="0.622" yScale="0.622"/>
  </outline>
</glyph>
<glyph name="A" format="1">
  <advance width="502"/>
  <unicode hex="0041"/>
  <outline>
    <contour>
      <point x="118" y="0" type="line"/>
      <point x="253" y="561" type="line"/>
      <point x="381" y="0" type="line"/>
      <point x="484" y="0" type="line"/>
      <point x="306" y="700" type="line"/>
      <point x="195" y="700" type="line"/>
      <point x="18" y="0" type="line"/>
    </contour>
    <contour>
      <point x="395" y="125" type="line"/>
      <point x="395" y="221" type="line"/>
      <point x="107" y="221" type="line"/>
      <point x="107" y="125" type="line"/>
    </contour>
  </outline>
</glyph>
<glyph name="B" format="1">
  <advance width="482"/>
  <unicode hex="0042"/>
  <outline>
    <contour>
      <point x="156" y="608" type="line"/>
      <point x="237" y="608" type="line"/>
      <point x="301" y="608"/>
      <point x="344" y="565"/>
      <point x="344" y="504" type="curve" smooth="yes"/>
      <point x="344" y="442"/>
      <point x="301" y="403"/>
      <point x="237" y="403" type="curve"/>
      <point x="156" y="403" type="line"/>
    </contour>
    <contour>
      <point x="233" y="328" type="line" smooth="yes"/>
      <point x="359" y="328"/>
      <point x="441" y="401"/>
      <point x="441" y="513" type="curve" smooth="yes"/>
      <point x="441" y="627"/>
      <point x="356" y="700"/>
      <point x="230" y="700" type="curve"/>
      <point x="56" y="700" type="line"/>
      <point x="56" y="328" type="line"/>
    </contour>
    <contour>
      <point x="156" y="311" type="line"/>
      <point x="238" y="311" type="line" smooth="yes"/>
      <point x="303" y="311"/>
      <point x="347" y="269"/>
      <point x="347" y="203" type="curve" smooth="yes"/>
      <point x="347" y="139"/>
      <point x="304" y="93"/>
      <point x="238" y="93" type="curve" smooth="yes"/>
      <point x="156" y="93" type="line"/>
    </contour>
    <contour>
      <point x="245" y="0" type="line" smooth="yes"/>
      <point x="366" y="0"/>
      <point x="447" y="77"/>
      <point x="447" y="195" type="curve" smooth="yes"/>
      <point x="447" y="315"/>
      <point x="360" y="400"/>
      <point x="235" y="400" type="curve"/>
      <point x="56" y="400" type="line"/>
      <point x="56" y="0" type="line"/>
    </contour>
  </outline>
</glyph>
<glyph name="C" format="1">
  <advance width="466"/>
  <unicode hex="0043"/>
  <outline>
    <contour>
      <point x="359" y="-10"/>
      <point x="436" y="65"/>
      <point x="436" y="178" type="curve" smooth="yes"/>
      <point x="436" y="204" type="line"/>
      <point x="336" y="204" type="line"/>
      <point x="336" y="181" type="line" smooth="yes"/>
      <point x="336" y="125"/>
      <point x="299" y="86"/>
      <point x="242" y="86" type="curve" smooth="yes"/>
      <point x="185" y="86"/>
      <point x="148" y="125"/>
      <point x="148" y="187" type="curve" smooth="yes"/>
      <point x="148" y="514" type="line" smooth="yes"/>
      <point x="148" y="576"/>
      <point x="185" y="615"/>
      <point x="242" y="615" type="curve" smooth="yes"/>
      <point x="299" y="615"/>
      <point x="336" y="576"/>
      <point x="336" y="520" type="curve" smooth="yes"/>
      <point x="336" y="496" type="line"/>
      <point x="436" y="496" type="line"/>
      <point x="436" y="523" type="line" smooth="yes"/>
      <point x="436" y="636"/>
      <point x="359" y="711"/>
      <point x="242" y="711" type="curve" smooth="yes"/>
      <point x="126" y="711"/>
      <point x="48" y="636"/>
      <point x="48" y="523" type="curve" smooth="yes"/>
      <point x="48" y="178" type="line" smooth="yes"/>
      <point x="48" y="65"/>
      <point x="126" y="-10"/>
      <point x="242" y="-10" type="curve" smooth="yes"/>
    </contour>
  </outline>
</glyph>
<glyph name="D" format="1">
  <advance width="479"/>
  <unicode hex="0044"/>
  <outline>
    <contour>
      <point x="243" y="0" type="line" smooth="yes"/>
      <point x="361" y="0"/>
      <point x="437" y="73"/>
      <point x="437" y="190" type="curve" smooth="yes"/>
      <point x="437" y="510" type="line" smooth="yes"/>
      <point x="437" y="627"/>
      <point x="361" y="700"/>
      <point x="243" y="700" type="curve" smooth="yes"/>
      <point x="54" y="700" type="line"/>
      <point x="54" y="0" type="line"/>
    </contour>
    <contour>
      <point x="154" y="604" type="line"/>
      <point x="241" y="604" type="line" smooth="yes"/>
      <point x="300" y="604"/>
      <point x="337" y="562"/>
      <point x="337" y="495" type="curve"/>
      <point x="337" y="205" type="line"/>
      <point x="337" y="138"/>
      <point x="299" y="96"/>
      <point x="241" y="96" type="curve" smooth="yes"/>
      <point x="154" y="96" type="line"/>
    </contour>
  </outline>
</glyph>
<glyph name="E" format="1">
  <advance width="448"/>
  <unicode hex="0045"/>
  <outline>
    <contour>
      <point x="424" y="0" type="line"/>
      <point x="424" y="96" type="line"/>
      <point x="154" y="96" type="line"/>
      <point x="154" y="604" type="line"/>
      <point x="424" y="604" type="line"/>
      <point x="424" y="700" type="line"/>
      <point x="54" y="700" type="line"/>
      <point x="54" y="0" type="line"/>
    </contour>
    <contour>
      <point x="330" y="299" type="line"/>
      <point x="330" y="395" type="line"/>
      <point x="95" y="395" type="line"/>
      <point x="95" y="299" type="line"/>
    </contour>
  </outline>
</glyph>
<glyph name="F" format="1">
  <advance width="453"/>
  <unicode hex="0046"/>
  <outline>
    <contour>
      <point x="162" y="0" type="line"/>
      <point x="162" y="606" type="line"/>
      <point x="432" y="606" type="line"/>
      <point x="432" y="700" type="line"/>
      <point x="63" y="700" type="line"/>
      <point x="63" y="0" type="line"/>
    </contour>
    <contour>
      <point x="338" y="303" type="line"/>
      <point x="338" y="397" type="line"/>
      <point x="104" y="397" type="line"/>
      <point x="104" y="303" type="line"/>
    </contour>
  </outline>
</glyph>
<glyph name="G" format="1">
  <advance width="476"/>
  <unicode hex="0047"/>
  <outline>
    <contour>
      <point x="365" y="-10"/>
      <point x="441" y="63"/>
      <point x="441" y="173" type="curve" smooth="yes"/>
      <point x="441" y="394" type="line"/>
      <point x="254" y="394" type="line"/>
      <point x="254" y="303" type="line"/>
      <point x="342" y="303" type="line"/>
      <point x="342" y="178" type="line" smooth="yes"/>
      <point x="342" y="122"/>
      <point x="306" y="84"/>
      <point x="249" y="84" type="curve" smooth="yes"/>
      <point x="193" y="84"/>
      <point x="155" y="122"/>
      <point x="155" y="178" type="curve" smooth="yes"/>
      <point x="155" y="522" type="line" smooth="yes"/>
      <point x="155" y="578"/>
      <point x="193" y="616"/>
      <point x="249" y="616" type="curve" smooth="yes"/>
      <point x="306" y="616"/>
      <point x="342" y="578"/>
      <point x="342" y="522" type="curve" smooth="yes"/>
      <point x="342" y="467" type="line"/>
      <point x="441" y="467" type="line"/>
      <point x="441" y="526" type="line" smooth="yes"/>
      <point x="441" y="637"/>
      <point x="365" y="710"/>
      <point x="249" y="710" type="curve" smooth="yes"/>
      <point x="133" y="710"/>
      <point x="56" y="637"/>
      <point x="56" y="527" type="curve" smooth="yes"/>
      <point x="56" y="173" type="line" smooth="yes"/>
      <point x="56" y="63"/>
      <point x="133" y="-10"/>
      <point x="249" y="-10" type="curve" smooth="yes"/>
    </contour>
  </outline>
</glyph>
<glyph name="H" format="1">
  <advance width="486"/>
  <unicode hex="0048"/>
  <outline>
    <contour>
      <point x="432" y="0" type="line"/>
      <point x="432" y="700" type="line"/>
      <point x="332" y="700" type="line"/>
      <point x="332" y="0" type="line"/>
    </contour>
    <contour>
      <point x="154" y="0" type="line"/>
      <point x="154" y="700" type="line"/>
      <point x="54" y="700" type="line"/>
      <point x="54" y="0" type="line"/>
    </contour>
    <contour>
      <point x="380" y="301" type="line"/>
      <point x="380" y="397" type="line"/>
      <point x="108" y="397" type="line"/>
      <point x="108" y="301" type="line"/>
    </contour>
  </outline>
</glyph>
<glyph name="I" format="1">
  <advance width="225"/>
  <unicode hex="0049"/>
  <outline>
    <contour>
      <point x="162" y="0" type="line"/>
      <point x="162" y="700" type="line"/>
      <point x="63" y="700" type="line"/>
      <point x="63" y="0" type="line"/>
    </contour>
  </outline>
</glyph>
<glyph name="J" format="1">
  <advance width="465"/>
  <unicode hex="004A"/>
  <outline>
    <contour>
      <point x="327" y="-9"/>
      <point x="402" y="66"/>
      <point x="402" y="183" type="curve" smooth="yes"/>
      <point x="402" y="700" type="line"/>
      <point x="302" y="700" type="line"/>
      <point x="302" y="180" type="line" smooth="yes"/>
      <point x="302" y="123"/>
      <point x="266" y="85"/>
      <point x="211" y="85" type="curve" smooth="yes"/>
      <point x="156" y="85"/>
      <point x="120" y="123"/>
      <point x="120" y="180" type="curve" smooth="yes"/>
      <point x="120" y="256" type="line"/>
      <point x="21" y="256" type="line"/>
      <point x="21" y="183" type="line" smooth="yes"/>
      <point x="21" y="66"/>
      <point x="95" y="-9"/>
      <point x="211" y="-9" type="curve" smooth="yes"/>
    </contour>
  </outline>
</glyph>
<glyph name="K" format="1">
  <advance width="472"/>
  <unicode hex="004B"/>
  <outline>
    <contour>
      <point x="154" y="0" type="line"/>
      <point x="154" y="232" type="line"/>
      <point x="222" y="331" type="line"/>
      <point x="365" y="-2" type="line"/>
      <point x="472" y="0" type="line"/>
      <point x="288" y="411" type="line"/>
      <point x="463" y="700" type="line"/>
      <point x="355" y="700" type="line"/>
      <point x="154" y="373" type="line"/>
      <point x="154" y="700" type="line"/>
      <point x="54" y="700" type="line"/>
      <point x="54" y="0" type="line"/>
    </contour>
  </outline>
</glyph>
<glyph name="L" format="1">
  <advance width="432"/>
  <unicode hex="004C"/>
  <outline>
    <contour>
      <point x="420" y="0" type="line"/>
      <point x="420" y="96" type="line"/>
      <point x="154" y="96" type="line"/>
      <point x="154" y="700" type="line"/>
      <point x="54" y="700" type="line"/>
      <point x="54" y="0" type="line"/>
    </contour>
  </outline>
</glyph>
<glyph name="M" format="1">
  <advance width="535"/>
  <unicode hex="004D"/>
  <outline>
    <contour>
      <point x="156" y="0" type="line"/>
      <point x="156" y="490" type="line"/>
      <point x="268" y="278" type="line"/>
      <point x="379" y="490" type="line"/>
      <point x="379" y="0" type="line"/>
      <point x="479" y="0" type="line"/>
      <point x="479" y="700" type="line"/>
      <point x="381" y="700" type="line"/>
      <point x="268" y="464" type="line"/>
      <point x="154" y="700" type="line"/>
      <point x="56" y="700" type="line"/>
      <point x="56" y="0" type="line"/>
    </contour>
  </outline>
</glyph>
<glyph name="N" format="1">
  <advance width="495"/>
  <unicode hex="004E"/>
  <outline>
    <contour>
      <point x="148" y="0" type="line"/>
      <point x="147" y="457" type="line"/>
      <point x="348" y="0" type="line"/>
      <point x="447" y="0" type="line"/>
      <point x="447" y="700" type="line"/>
      <point x="347" y="700" type="line"/>
      <point x="347" y="236" type="line"/>
      <point x="147" y="700" type="line"/>
      <point x="48" y="700" type="line"/>
      <point x="48" y="0" type="line"/>
    </contour>
  </outline>
</glyph>
<glyph name="O" format="1">
  <advance width="484"/>
  <unicode hex="004F"/>
  <outline>
    <contour>
      <point x="361" y="-10"/>
      <point x="442" y="67"/>
      <point x="442" y="182" type="curve" smooth="yes"/>
      <point x="442" y="518" type="line" smooth="yes"/>
      <point x="442" y="633"/>
      <point x="361" y="710"/>
      <point x="241" y="710" type="curve" smooth="yes"/>
      <point x="122" y="710"/>
      <point x="42" y="633"/>
      <point x="42" y="518" type="curve" smooth="yes"/>
      <point x="42" y="182" type="line" smooth="yes"/>
      <point x="42" y="67"/>
      <point x="122" y="-10"/>
      <point x="241" y="-10" type="curve" smooth="yes"/>
    </contour>
    <contour>
      <point x="181" y="84"/>
      <point x="141" y="125"/>
      <point x="141" y="183" type="curve" smooth="yes"/>
      <point x="141" y="517" type="line" smooth="yes"/>
      <point x="141" y="575"/>
      <point x="181" y="616"/>
      <point x="241" y="616" type="curve" smooth="yes"/>
      <point x="302" y="616"/>
      <point x="342" y="575"/>
      <point x="342" y="517" type="curve" smooth="yes"/>
      <point x="342" y="183" type="line" smooth="yes"/>
      <point x="342" y="125"/>
      <point x="302" y="84"/>
      <point x="241" y="84" type="curve" smooth="yes"/>
    </contour>
  </outline>
</glyph>
<glyph name="P" format="1">
  <advance width="475"/>
  <unicode hex="0050"/>
  <outline>
    <contour>
      <point x="148" y="0" type="line"/>
      <point x="148" y="605" type="line"/>
      <point x="246" y="605" type="line" smooth="yes"/>
      <point x="302" y="605"/>
      <point x="339" y="564"/>
      <point x="339" y="498" type="curve" smooth="yes"/>
      <point x="339" y="431"/>
      <point x="302" y="384"/>
      <point x="246" y="384" type="curve" smooth="yes"/>
      <point x="138" y="384" type="line"/>
      <point x="138" y="288" type="line"/>
      <point x="260" y="288" type="line" smooth="yes"/>
      <point x="367" y="288"/>
      <point x="439" y="373"/>
      <point x="439" y="497" type="curve" smooth="yes"/>
      <point x="439" y="621"/>
      <point x="366" y="701"/>
      <point x="256" y="701" type="curve" smooth="yes"/>
      <point x="48" y="701" type="line"/>
      <point x="48" y="0" type="line"/>
    </contour>
  </outline>
</glyph>
<glyph name="Q" format="1">
  <advance width="475"/>
  <unicode hex="0051"/>
  <outline>
    <contour>
      <point x="470" y="47" type="line"/>
      <point x="235" y="62" type="line"/>
      <point x="206" y="-7" type="line"/>
      <point x="460" y="-44" type="line"/>
    </contour>
    <contour>
      <point x="175" y="87"/>
      <point x="136" y="127"/>
      <point x="136" y="187" type="curve" smooth="yes"/>
      <point x="136" y="513" type="line" smooth="yes"/>
      <point x="136" y="573"/>
      <point x="175" y="613"/>
      <point x="231" y="613" type="curve" smooth="yes"/>
      <point x="289" y="613"/>
      <point x="327" y="573"/>
      <point x="327" y="513" type="curve" smooth="yes"/>
      <point x="327" y="187" type="line" smooth="yes"/>
      <point x="327" y="127"/>
      <point x="289" y="87"/>
      <point x="231" y="87" type="curve" smooth="yes"/>
    </contour>
    <contour>
      <point x="348" y="-9"/>
      <point x="427" y="68"/>
      <point x="427" y="183" type="curve" smooth="yes"/>
      <point x="427" y="517" type="line" smooth="yes"/>
      <point x="427" y="632"/>
      <point x="348" y="709"/>
      <point x="231" y="709" type="curve" smooth="yes"/>
      <point x="115" y="709"/>
      <point x="36" y="632"/>
      <point x="36" y="517" type="curve" smooth="yes"/>
      <point x="36" y="183" type="line" smooth="yes"/>
      <point x="36" y="68"/>
      <point x="115" y="-9"/>
      <point x="231" y="-9" type="curve" smooth="yes"/>
    </contour>
  </outline>
</glyph>
<glyph name="R" format="1">
  <advance width="483"/>
  <unicode hex="0052"/>
  <outline>
    <contour>
      <point x="156" y="0" type="line"/>
      <point x="156" y="607" type="line"/>
      <point x="256" y="607" type="line" smooth="yes"/>
      <point x="311" y="607"/>
      <point x="348" y="563"/>
      <point x="348" y="496" type="curve" smooth="yes"/>
      <point x="348" y="428"/>
      <point x="311" y="382"/>
      <point x="256" y="382" type="curve" smooth="yes"/>
      <point x="146" y="382" type="line"/>
      <point x="146" y="289" type="line"/>
      <point x="270" y="289" type="line" smooth="yes"/>
      <point x="377" y="289"/>
      <point x="448" y="373"/>
      <point x="448" y="499" type="curve" smooth="yes"/>
      <point x="448" y="620"/>
      <point x="375" y="701"/>
      <point x="266" y="701" type="curve" smooth="yes"/>
      <point x="56" y="701" type="line"/>
      <point x="56" y="0" type="line"/>
    </contour>
    <contour>
      <point x="455" y="0" type="line"/>
      <point x="338" y="343" type="line"/>
      <point x="245" y="338" type="line"/>
      <point x="353" y="0" type="line"/>
    </contour>
  </outline>
</glyph>
<glyph name="S" format="1">
  <advance width="454"/>
  <unicode hex="0053"/>
  <outline>
    <contour>
      <point x="344" y="-9"/>
      <point x="419" y="59"/>
      <point x="419" y="167" type="curve" smooth="yes"/>
      <point x="419" y="269"/>
      <point x="345" y="322"/>
      <point x="253" y="384" type="curve" smooth="yes"/>
      <point x="182" y="432"/>
      <point x="133" y="463"/>
      <point x="133" y="526" type="curve" smooth="yes"/>
      <point x="133" y="581"/>
      <point x="167" y="615"/>
      <point x="224" y="615" type="curve" smooth="yes"/>
      <point x="282" y="615"/>
      <point x="315" y="580"/>
      <point x="315" y="524" type="curve" smooth="yes"/>
      <point x="315" y="496" type="line"/>
      <point x="413" y="496" type="line"/>
      <point x="413" y="531" type="line" smooth="yes"/>
      <point x="413" y="639"/>
      <point x="342" y="709"/>
      <point x="224" y="709" type="curve" smooth="yes"/>
      <point x="108" y="709"/>
      <point x="35" y="640"/>
      <point x="35" y="533" type="curve" smooth="yes"/>
      <point x="35" y="419"/>
      <point x="122" y="361"/>
      <point x="198" y="310" type="curve" smooth="yes"/>
      <point x="272" y="260"/>
      <point x="320" y="230"/>
      <point x="320" y="170" type="curve" smooth="yes"/>
      <point x="320" y="119"/>
      <point x="286" y="85"/>
      <point x="227" y="85" type="curve" smooth="yes"/>
      <point x="170" y="85"/>
      <point x="135" y="119"/>
      <point x="135" y="177" type="curve" smooth="yes"/>
      <point x="135" y="210" type="line"/>
      <point x="38" y="210" type="line"/>
      <point x="38" y="164" type="line" smooth="yes"/>
      <point x="38" y="60"/>
      <point x="111" y="-9"/>
      <point x="227" y="-9" type="curve" smooth="yes"/>
    </contour>
  </outline>
</glyph>
<glyph name="T" format="1">
  <advance width="437"/>
  <unicode hex="0054"/>
  <outline>
    <contour>
      <point x="271" y="0" type="line"/>
      <point x="271" y="689" type="line"/>
      <point x="171" y="689" type="line"/>
      <point x="171" y="0" type="line"/>
    </contour>
    <contour>
      <point x="425" y="604" type="line"/>
      <point x="425" y="700" type="line"/>
      <point x="24" y="700" type="line"/>
      <point x="24" y="604" type="line"/>
    </contour>
  </outline>
</glyph>
<glyph name="U" format="1">
  <advance width="478"/>
  <unicode hex="0055"/>
  <outline>
    <contour>
      <point x="357" y="-9"/>
      <point x="436" y="68"/>
      <point x="436" y="182" type="curve" smooth="yes"/>
      <point x="436" y="700" type="line"/>
      <point x="336" y="700" type="line"/>
      <point x="336" y="186" type="line" smooth="yes"/>
      <point x="336" y="127"/>
      <point x="297" y="87"/>
      <point x="239" y="87" type="curve" smooth="yes"/>
      <point x="182" y="87"/>
      <point x="142" y="127"/>
      <point x="142" y="186" type="curve" smooth="yes"/>
      <point x="142" y="700" type="line"/>
      <point x="42" y="700" type="line"/>
      <point x="42" y="182" type="line" smooth="yes"/>
      <point x="42" y="68"/>
      <point x="122" y="-9"/>
      <point x="239" y="-9" type="curve" smooth="yes"/>
    </contour>
  </outline>
</glyph>
<glyph name="V" format="1">
  <advance width="493"/>
  <unicode hex="0056"/>
  <outline>
    <contour>
      <point x="299" y="0" type="line"/>
      <point x="475" y="700" type="line"/>
      <point x="370" y="700" type="line"/>
      <point x="248" y="165" type="line"/>
      <point x="124" y="700" type="line"/>
      <point x="18" y="700" type="line"/>
      <point x="193" y="0" type="line"/>
    </contour>
  </outline>
</glyph>
<glyph name="W" format="1">
  <advance width="685"/>
  <unicode hex="0057"/>
  <outline>
    <contour>
      <point x="250" y="0" type="line"/>
      <point x="343" y="519" type="line"/>
      <point x="437" y="0" type="line"/>
      <point x="524" y="0" type="line"/>
      <point x="667" y="700" type="line"/>
      <point x="565" y="700" type="line"/>
      <point x="482" y="186" type="line"/>
      <point x="385" y="700" type="line"/>
      <point x="297" y="700" type="line"/>
      <point x="207" y="186" type="line"/>
      <point x="122" y="700" type="line"/>
      <point x="18" y="700" type="line"/>
      <point x="162" y="0" type="line"/>
    </contour>
  </outline>
</glyph>
<glyph name="X" format="1">
  <advance width="464"/>
  <unicode hex="0058"/>
  <outline>
    <contour>
      <point x="120" y="0" type="line"/>
      <point x="232" y="252" type="line"/>
      <point x="344" y="0" type="line"/>
      <point x="446" y="0" type="line"/>
      <point x="284" y="349" type="line"/>
      <point x="446" y="700" type="line"/>
      <point x="343" y="700" type="line"/>
      <point x="232" y="447" type="line"/>
      <point x="121" y="700" type="line"/>
      <point x="18" y="700" type="line"/>
      <point x="180" y="350" type="line"/>
      <point x="18" y="0" type="line"/>
    </contour>
  </outline>
</glyph>
<glyph name="Y" format="1">
  <advance width="462"/>
  <unicode hex="0059"/>
  <outline>
    <contour>
      <point x="281" y="1" type="line"/>
      <point x="281" y="308" type="line"/>
      <point x="441" y="700" type="line"/>
      <point x="337" y="700" type="line"/>
      <point x="231" y="411" type="line"/>
      <point x="125" y="700" type="line"/>
      <point x="21" y="700" type="line"/>
      <point x="181" y="308" type="line"/>
      <point x="181" y="1" type="line"/>
    </contour>
  </outline>
</glyph>
<glyph name="Z" format="1">
  <advance width="402"/>
  <unicode hex="005A"/>
  <outline>
    <contour>
      <point x="378" y="0" type="line"/>
      <point x="378" y="96" type="line"/>
      <point x="122" y="96" type="line"/>
      <point x="378" y="604" type="line"/>
      <point x="378" y="700" type="line"/>
      <point x="18" y="700" type="line"/>
      <point x="18" y="604" type="line"/>
      <point x="272" y="604" type="line"/>
      <point x="18" y="96" type="line"/>
      <point x="18" y="0" type="line"/>
    </contour>
  </outline>
</glyph>
<glyph name="a" format="1">
  <advance width="472"/>
  <unicode hex="0061"/>
  <outline>
    <contour>
      <point x="416" y="0" type="line"/>
      <point x="416" y="351" type="line" smooth="yes"/>
      <point x="416" y="453"/>
      <point x="348" y="518"/>
      <point x="241" y="518" type="curve" smooth="yes"/>
      <point x="138" y="518"/>
      <point x="61" y="457"/>
      <point x="61" y="361" type="curve" smooth="yes"/>
      <point x="61" y="338" type="line"/>
      <point x="161" y="335" type="line"/>
      <point x="161" y="346" type="line" smooth="yes"/>
      <point x="161" y="399"/>
      <point x="198" y="431"/>
      <point x="242" y="431" type="curve" smooth="yes"/>
      <point x="288" y="431"/>
      <point x="316" y="398"/>
      <point x="316" y="342" type="curve" smooth="yes"/>
      <point x="316" y="0" type="line"/>
    </contour>
    <contour>
      <point x="295" y="-8"/>
      <point x="366" y="71"/>
      <point x="366" y="170" type="curve"/>
      <point x="366" y="297" type="line"/>
      <point x="239" y="297" type="line"/>
      <point x="110" y="297"/>
      <point x="42" y="242"/>
      <point x="42" y="137" type="curve" smooth="yes"/>
      <point x="42" y="40"/>
      <point x="99" y="-8"/>
      <point x="186" y="-8" type="curve" smooth="yes"/>
    </contour>
    <contour>
      <point x="164" y="77"/>
      <point x="139" y="102"/>
      <point x="139" y="142" type="curve" smooth="yes"/>
      <point x="139" y="188"/>
      <point x="173" y="214"/>
      <point x="251" y="214" type="curve"/>
      <point x="316" y="214" type="line"/>
      <point x="316" y="161" type="line" smooth="yes"/>
      <point x="316" y="129"/>
      <point x="292" y="77"/>
      <point x="214" y="77" type="curve" smooth="yes"/>
    </contour>
  </outline>
</glyph>
<glyph name="b" format="1">
  <advance width="482"/>
  <unicode hex="0062"/>
  <outline>
    <contour>
      <point x="155" y="0" type="line"/>
      <point x="155" y="700" type="line"/>
      <point x="56" y="700" type="line"/>
      <point x="56" y="0" type="line"/>
    </contour>
    <component base="b.bowl" xOffset="129"/>
  </outline>
</glyph>
<glyph name="c" format="1">
  <advance width="468"/>
  <unicode hex="0063"/>
  <outline>
    <contour>
      <point x="355" y="-8"/>
      <point x="426" y="58"/>
      <point x="426" y="161" type="curve" smooth="yes"/>
      <point x="426" y="178" type="line"/>
      <point x="327" y="178" type="line"/>
      <point x="327" y="158" type="line" smooth="yes"/>
      <point x="327" y="110"/>
      <point x="293" y="78"/>
      <point x="238" y="78" type="curve" smooth="yes"/>
      <point x="184" y="78"/>
      <point x="149" y="114"/>
      <point x="149" y="169" type="curve" smooth="yes"/>
      <point x="149" y="340" type="line" smooth="yes"/>
      <point x="149" y="395"/>
      <point x="184" y="431"/>
      <point x="238" y="431" type="curve" smooth="yes"/>
      <point x="293" y="431"/>
      <point x="327" y="400"/>
      <point x="327" y="351" type="curve" smooth="yes"/>
      <point x="327" y="330" type="line"/>
      <point x="426" y="330" type="line"/>
      <point x="426" y="348" type="line" smooth="yes"/>
      <point x="426" y="452"/>
      <point x="355" y="517"/>
      <point x="238" y="517" type="curve" smooth="yes"/>
      <point x="121" y="517"/>
      <point x="49" y="448"/>
      <point x="49" y="337" type="curve" smooth="yes"/>
      <point x="49" y="172" type="line" smooth="yes"/>
      <point x="49" y="62"/>
      <point x="121" y="-8"/>
      <point x="238" y="-8" type="curve" smooth="yes"/>
    </contour>
  </outline>
</glyph>
<glyph name="e" format="1">
  <advance width="461"/>
  <unicode hex="0065"/>
  <outline>
    <contour>
      <point x="339" y="-8"/>
      <point x="409" y="54"/>
      <point x="417" y="145" type="curve"/>
      <point x="317" y="153" type="line"/>
      <point x="309" y="114"/>
      <point x="276" y="88"/>
      <point x="231" y="88" type="curve" smooth="yes"/>
      <point x="176" y="88"/>
      <point x="142" y="125"/>
      <point x="142" y="179" type="curve" smooth="yes"/>
      <point x="142" y="331" type="line" smooth="yes"/>
      <point x="142" y="385"/>
      <point x="176" y="422"/>
      <point x="231" y="422" type="curve" smooth="yes"/>
      <point x="286" y="422"/>
      <point x="319" y="385"/>
      <point x="319" y="331" type="curve" smooth="yes"/>
      <point x="319" y="300" type="line"/>
      <point x="103" y="300" type="line"/>
      <point x="103" y="215" type="line"/>
      <point x="419" y="215" type="line"/>
      <point x="419" y="333" type="line" smooth="yes"/>
      <point x="419" y="444"/>
      <point x="348" y="518"/>
      <point x="231" y="518" type="curve" smooth="yes"/>
      <point x="114" y="518"/>
      <point x="42" y="444"/>
      <point x="42" y="333" type="curve" smooth="yes"/>
      <point x="42" y="177" type="line" smooth="yes"/>
      <point x="42" y="66"/>
      <point x="113" y="-8"/>
      <point x="231" y="-8" type="curve" smooth="yes"/>
    </contour>
  </outline>
</glyph>
<glyph name="f" format="1">
  <advance width="270"/>
  <unicode hex="0066"/>
  <outline>
    <contour>
      <point x="170" y="0" type="line"/>
      <point x="170" y="564" type="line"/>
      <point x="170" y="620"/>
      <point x="214" y="631"/>
      <point x="261" y="632" type="curve"/>
      <point x="261" y="706" type="line"/>
      <point x="100" y="709"/>
      <point x="70" y="665"/>
      <point x="70" y="553" type="curve"/>
      <point x="70" y="0" type="line"/>
    </contour>
    <contour>
      <point x="256" y="417" type="line"/>
      <point x="256" y="510" type="line"/>
      <point x="12" y="510" type="line"/>
      <point x="12" y="417" type="line"/>
    </contour>
  </outline>
</glyph>
<glyph name="g" format="1">
  <advance width="467"/>
  <unicode hex="0067"/>
  <outline>
    <contour>
      <point x="356" y="-217"/>
      <point x="419" y="-127"/>
      <point x="419" y="16" type="curve" smooth="yes"/>
      <point x="419" y="509" type="line"/>
      <point x="319" y="509" type="line"/>
      <point x="319" y="25" type="line" smooth="yes"/>
      <point x="319" y="-72"/>
      <point x="282" y="-123"/>
      <point x="152" y="-116" type="curve"/>
      <point x="152" y="-203" type="line"/>
    </contour>
    <component base="b.bowl" xOffset="346" xScale="-1"/>
  </outline>
</glyph>
<glyph name="h" format="1">
  <advance width="476"/>
  <unicode hex="0068"/>
  <outline>
    <contour>
      <point x="155" y="0" type="line"/>
      <point x="155" y="700" type="line"/>
      <point x="56" y="700" type="line"/>
      <point x="56" y="0" type="line"/>
    </contour>
    <component base="n.curve" xOffset="129"/>
  </outline>
</glyph>
<glyph name="i" format="1">
  <advance width="195"/>
  <unicode hex="0069"/>
  <outline>
    <contour>
      <point x="147" y="0" type="line"/>
      <point x="147" y="509" type="line"/>
      <point x="48" y="509" type="line"/>
      <point x="48" y="0" type="line"/>
    </contour>
    <contour>
      <point x="136" y="562"/>
      <point x="162" y="589"/>
      <point x="162" y="627" type="curve" smooth="yes"/>
      <point x="162" y="665"/>
      <point x="136" y="691"/>
      <point x="98" y="691" type="curve" smooth="yes"/>
      <point x="60" y="691"/>
      <point x="33" y="665"/>
      <point x="33" y="627" type="curve" smooth="yes"/>
      <point x="33" y="589"/>
      <point x="60" y="562"/>
      <point x="98" y="562" type="curve" smooth="yes"/>
    </contour>
  </outline>
</glyph>
<glyph name="j" format="1">
  <advance width="253"/>
  <unicode hex="006A"/>
  <outline>
    <contour>
      <point x="154" y="-211"/>
      <point x="183" y="-141"/>
      <point x="183" y="-26" type="curve" smooth="yes"/>
      <point x="183" y="509" type="line"/>
      <point x="84" y="509" type="line"/>
      <point x="84" y="-26" type="line" smooth="yes"/>
      <point x="84" y="-87"/>
      <point x="54" y="-124"/>
      <point x="-21" y="-120" type="curve"/>
      <point x="-21" y="-206" type="line"/>
    </contour>
    <contour>
      <point x="172" y="604"/>
      <point x="199" y="632"/>
      <point x="199" y="669" type="curve" smooth="yes"/>
      <point x="199" y="706"/>
      <point x="168" y="733"/>
      <point x="134" y="733" type="curve" smooth="yes"/>
      <point x="99" y="733"/>
      <point x="68" y="706"/>
      <point x="68" y="669" type="curve" smooth="yes"/>
      <point x="68" y="632"/>
      <point x="95" y="604"/>
      <point x="134" y="604" type="curve" smooth="yes"/>
    </contour>
  </outline>
</glyph>
<glyph name="k" format="1">
  <advance width="459"/>
  <unicode hex="006B"/>
  <outline>
    <contour>
      <point x="160" y="0" type="line"/>
      <point x="160" y="186" type="line"/>
      <point x="230" y="267" type="line"/>
      <point x="338" y="0" type="line"/>
      <point x="441" y="0" type="line"/>
      <point x="295" y="334" type="line"/>
      <point x="428" y="509" type="line"/>
      <point x="323" y="509" type="line"/>
      <point x="160" y="313" type="line"/>
      <point x="160" y="700" type="line"/>
      <point x="60" y="700" type="line"/>
      <point x="60" y="0" type="line"/>
    </contour>
  </outline>
</glyph>
<glyph name="l" format="1">
  <advance width="195"/>
  <unicode hex="006C"/>
  <outline>
    <contour>
      <point x="147" y="0" type="line"/>
      <point x="147" y="700" type="line"/>
      <point x="48" y="700" type="line"/>
      <point x="48" y="0" type="line"/>
    </contour>
  </outline>
</glyph>
<glyph name="m" format="1">
  <advance width="747"/>
  <unicode hex="006D"/>
  <outline>
    <contour>
      <point x="155" y="0" type="line"/>
      <point x="155" y="509" type="line"/>
      <point x="56" y="509" type="line"/>
      <point x="56" y="0" type="line"/>
    </contour>
    <component base="n.curve" xOffset="129"/>
    <component base="n.curve" xOffset="400"/>
  </outline>
</glyph>
<glyph name="n" format="1">
  <advance width="461"/>
  <unicode hex="006E"/>
  <outline>
    <contour>
      <point x="147" y="0" type="line"/>
      <point x="147" y="509" type="line"/>
      <point x="48" y="509" type="line"/>
      <point x="48" y="0" type="line"/>
    </contour>
    <component base="n.curve" xOffset="121"/>
  </outline>
</glyph>
<glyph name="o" format="1">
  <advance width="462"/>
  <unicode hex="006F"/>
  <outline>
    <contour>
      <point x="349" y="-8"/>
      <point x="420" y="62"/>
      <point x="420" y="172" type="curve" smooth="yes"/>
      <point x="420" y="337" type="line" smooth="yes"/>
      <point x="420" y="449"/>
      <point x="349" y="519"/>
      <point x="231" y="519" type="curve" smooth="yes"/>
      <point x="115" y="519"/>
      <point x="42" y="449"/>
      <point x="42" y="337" type="curve" smooth="yes"/>
      <point x="42" y="172" type="line" smooth="yes"/>
      <point x="42" y="62"/>
      <point x="115" y="-8"/>
      <point x="231" y="-8" type="curve" smooth="yes"/>
    </contour>
    <contour>
      <point x="177" y="78"/>
      <point x="142" y="114"/>
      <point x="142" y="169" type="curve" smooth="yes"/>
      <point x="142" y="340" type="line" smooth="yes"/>
      <point x="142" y="395"/>
      <point x="177" y="431"/>
      <point x="231" y="431" type="curve" smooth="yes"/>
      <point x="286" y="431"/>
      <point x="321" y="395"/>
      <point x="321" y="340" type="curve" smooth="yes"/>
      <point x="321" y="169" type="line" smooth="yes"/>
      <point x="321" y="114"/>
      <point x="286" y="78"/>
      <point x="231" y="78" type="curve" smooth="yes"/>
    </contour>
  </outline>
</glyph>
<glyph name="r" format="1">
  <advance width="316"/>
  <unicode hex="0072"/>
  <outline>
    <contour>
      <point x="153" y="304" type="line"/>
      <point x="153" y="360"/>
      <point x="187" y="404"/>
      <point x="236" y="408" type="curve" smooth="yes"/>
      <point x="260" y="413"/>
      <point x="286" y="408"/>
      <point x="298" y="400" type="curve"/>
      <point x="316" y="499" type="line"/>
      <point x="303" y="508"/>
      <point x="287" y="515"/>
      <point x="262" y="515" type="curve" smooth="yes"/>
      <point x="165" y="515"/>
      <point x="113" y="412"/>
      <point x="113" y="304" type="curve"/>
    </contour>
    <contour>
      <point x="153" y="0" type="line"/>
      <point x="153" y="510" type="line"/>
      <point x="54" y="510" type="line"/>
      <point x="54" y="0" type="line"/>
    </contour>
  </outline>
</glyph>
<glyph name="s" format="1">
  <advance width="426"/>
  <unicode hex="0073"/>
  <outline>
    <contour>
      <point x="323" y="-6"/>
      <point x="391" y="47"/>
      <point x="391" y="129" type="curve" smooth="yes"/>
      <point x="391" y="215"/>
      <point x="319" y="258"/>
      <point x="234" y="288" type="curve" smooth="yes"/>
      <point x="189" y="304"/>
      <point x="133" y="321"/>
      <point x="133" y="367" type="curve" smooth="yes"/>
      <point x="133" y="401"/>
      <point x="164" y="427"/>
      <point x="211" y="427" type="curve" smooth="yes"/>
      <point x="259" y="427"/>
      <point x="291" y="397"/>
      <point x="291" y="354" type="curve" smooth="yes"/>
      <point x="291" y="341" type="line"/>
      <point x="384" y="341" type="line"/>
      <point x="384" y="354" type="line" smooth="yes"/>
      <point x="384" y="453"/>
      <point x="319" y="515"/>
      <point x="209" y="515" type="curve" smooth="yes"/>
      <point x="106" y="515"/>
      <point x="38" y="461"/>
      <point x="38" y="373" type="curve" smooth="yes"/>
      <point x="38" y="283"/>
      <point x="108" y="241"/>
      <point x="186" y="216" type="curve" smooth="yes"/>
      <point x="249" y="195"/>
      <point x="291" y="180"/>
      <point x="291" y="140" type="curve" smooth="yes"/>
      <point x="291" y="106"/>
      <point x="260" y="79"/>
      <point x="212" y="79" type="curve" smooth="yes"/>
      <point x="164" y="79"/>
      <point x="130" y="108"/>
      <point x="130" y="152" type="curve" smooth="yes"/>
      <point x="130" y="161" type="line"/>
      <point x="35" y="161" type="line"/>
      <point x="35" y="144" type="line"/>
      <point x="35" y="51"/>
      <point x="103" y="-6"/>
      <point x="215" y="-6" type="curve" smooth="yes"/>
    </contour>
  </outline>
</glyph>
<glyph name="t" format="1">
  <advance width="280"/>
  <unicode hex="0074"/>
  <outline>
    <contour>
      <point x="260" y="0" type="line"/>
      <point x="260" y="94" type="line"/>
      <point x="230" y="94" type="line" smooth="yes"/>
      <point x="191" y="94"/>
      <point x="166" y="109"/>
      <point x="166" y="156" type="curve" smooth="yes"/>
      <point x="166" y="624" type="line"/>
      <point x="70" y="624" type="line"/>
      <point x="70" y="125" type="line" smooth="yes"/>
      <point x="70" y="50"/>
      <point x="116" y="-1"/>
      <point x="210" y="0" type="curve" smooth="yes"/>
    </contour>
    <contour>
      <point x="266" y="437" type="line"/>
      <point x="266" y="510" type="line"/>
      <point x="10" y="510" type="line"/>
      <point x="10" y="437" type="line"/>
    </contour>
  </outline>
</glyph>
<glyph name="v" format="1">
  <advance width="445"/>
  <unicode hex="0076"/>
  <outline>
    <contour>
      <point x="267" y="-1" type="line"/>
      <point x="417" y="508" type="line"/>
      <point x="308" y="509" type="line"/>
      <point x="219" y="137" type="line"/>
      <point x="129" y="509" type="line"/>
      <point x="21" y="509" type="line"/>
      <point x="171" y="0" type="line"/>
    </contour>
  </outline>
</glyph>
<glyph name="w" format="1">
  <advance width="632"/>
  <unicode hex="0077"/>
  <outline>
    <contour>
      <point x="242" y="-1" type="line"/>
      <point x="312" y="361" type="line"/>
      <point x="388" y="0" type="line"/>
      <point x="483" y="-1" type="line"/>
      <point x="608" y="508" type="line"/>
      <point x="504" y="509" type="line"/>
      <point x="436" y="150" type="line"/>
      <point x="356" y="509" type="line"/>
      <point x="261" y="509" type="line"/>
      <point x="192" y="150" type="line"/>
      <point x="121" y="509" type="line"/>
      <point x="18" y="509" type="line"/>
      <point x="142" y="0" type="line"/>
    </contour>
  </outline>
</glyph>
<glyph name="x" format="1">
  <advance width="453"/>
  <unicode hex="0078"/>
  <outline>
    <contour>
      <point x="125" y="0" type="line"/>
      <point x="223" y="173" type="line"/>
      <point x="321" y="0" type="line"/>
      <point x="425" y="0" type="line"/>
      <point x="273" y="255" type="line"/>
      <point x="425" y="509" type="line"/>
      <point x="321" y="509" type="line"/>
      <point x="223" y="338" type="line"/>
      <point x="125" y="509" type="line"/>
      <point x="21" y="509" type="line"/>
      <point x="173" y="255" type="line"/>
      <point x="21" y="0" type="line"/>
    </contour>
  </outline>
</glyph>
<glyph name="y" format="1">
  <advance width="439"/>
  <unicode hex="0079"/>
  <outline>
    <contour>
      <point x="57" y="-200" type="line"/>
      <point x="186" y="-199"/>
      <point x="216" y="-164"/>
      <point x="255" y="-34" type="curve" smooth="yes"/>
      <point x="411" y="509" type="line"/>
      <point x="303" y="510" type="line"/>
      <point x="217" y="132" type="line"/>
      <point x="126" y="510" type="line"/>
      <point x="21" y="510" type="line"/>
      <point x="167" y="0" type="line"/>
      <point x="148" y="-97"/>
      <point x="123" y="-117"/>
      <point x="55" y="-118" type="curve"/>
      <point x="27" y="-118" type="line"/>
      <point x="27" y="-200" type="line"/>
    </contour>
  </outline>
</glyph>
<glyph name="z" format="1">
  <advance width="403"/>
  <unicode hex="007A"/>
  <outline>
    <contour>
      <point x="373" y="0" type="line"/>
      <point x="373" y="96" type="line"/>
      <point x="137" y="96" type="line"/>
      <point x="371" y="413" type="line"/>
      <point x="371" y="509" type="line"/>
      <point x="29" y="509" type="line"/>
      <point x="29" y="413" type="line"/>
      <point x="254" y="413" type="line"/>
      <point x="24" y="96" type="line"/>
      <point x="24" y="0" type="line"/>
    </contour>
  </outline>
</glyph>
<glyph name="copyright" format="1">
  <advance width="882"/>
  <unicode hex="00A9"/>
  <outline>
    <contour>
      <point x="632" y="-67"/>
      <point x="793" y="94"/>
      <point x="793" y="291" type="curve" smooth="yes"/>
      <point x="793" y="487"/>
      <point x="632" y="648"/>
      <point x="435" y="648" type="curve" smooth="yes"/>
      <point x="239" y="648"/>
      <point x="79" y="487"/>
      <point x="79" y="291" type="curve" smooth="yes"/>
      <point x="79" y="94"/>
      <point x="239" y="-67"/>
      <point x="435" y="-67" type="curve" smooth="yes"/>
    </contour>
    <contour>
      <point x="266" y="-18"/>
      <point x="128" y="120"/>
      <point x="128" y="291" type="curve" smooth="yes"/>
      <point x="128" y="461"/>
      <point x="266" y="599"/>
      <point x="435" y="599" type="curve" smooth="yes"/>
      <point x="605" y="599"/>
      <point x="744" y="461"/>
      <point x="744" y="291" type="curve" smooth="yes"/>
      <point x="744" y="120"/>
      <point x="605" y="-18"/>
      <point x="435" y="-18" type="curve" smooth="yes"/>
    </contour>
    <component base="C" xOffset="289" yOffset="111" xScale="0.5" yScale="0.5"/>
  </outline>
</glyph>
<glyph name="registered" format="1">
  <advance width="882"/>
  <unicode hex="00AE"/>
  <outline>
    <contour>
      <point x="632" y="-67"/>
      <point x="793" y="93"/>
      <point x="793" y="290" type="curve" smooth="yes"/>
      <point x="793" y="487"/>
      <point x="632" y="647"/>
      <point x="435" y="647" type="curve" smooth="yes"/>
      <point x="239" y="647"/>
      <point x="79" y="487"/>
      <point x="79" y="290" type="curve" smooth="yes"/>
      <point x="79" y="93"/>
      <point x="239" y="-67"/>
      <point x="435" y="-67" type="curve" smooth="yes"/>
    </contour>
    <contour>
      <point x="266" y="-19"/>
      <point x="128" y="120"/>
      <point x="128" y="290" type="curve" smooth="yes"/>
      <point x="128" y="461"/>
      <point x="266" y="599"/>
      <point x="435" y="599" type="curve" smooth="yes"/>
      <point x="605" y="599"/>
      <point x="744" y="461"/>
      <point x="744" y="290" type="curve" smooth="yes"/>
      <point x="744" y="120"/>
      <point x="605" y="-19"/>
      <point x="435" y="-19" type="curve" smooth="yes"/>
    </contour>
    <component base="R" xOffset="321" yOffset="111" xScale="0.5" yScale="0.5"/>
  </outline>
</glyph>
<glyph name="emdash" format="1">
  <advance width="439"/>
  <unicode hex="2014"/>
  <outline>
    <contour>
      <point x="421" y="211" type="line"/>
      <point x="421" y="297" type="line"/>
      <point x="18" y="297" type="line"/>
      <point x="18" y="211" type="line"/>
    </contour>
  </outline>
</glyph>
<glyph name="quoteleft" format="1">
  <advance width="158"/>
  <unicode hex="2018"/>
  <outline>
    <contour>
      <point x="102" y="698" type="line"/>
      <point x="0" y="698" type="line"/>
      <point x="78" y="485" type="line"/>
      <point x="158" y="485" type="line"/>
    </contour>
  </outline>
</glyph>
<glyph name="quotedblleft" format="1">
  <advance width="301"/>
  <unicode hex="201C"/>
  <outline>
    <contour>
      <point x="168" y="485" type="line"/>
      <point x="101" y="698" type="line"/>
      <point x="0" y="698" type="line"/>
      <point x="91" y="485" type="line"/>
    </contour>
    <contour>
      <point x="301" y="485" type="line"/>
      <point x="256" y="698" type="line"/>
      <point x="156" y="698" type="line"/>
      <point x="230" y="485" type="line"/>
    </contour>
  </outline>
</glyph>
<glyph name="a.alt" format="1">
  <advance width="452"/>
  <outline>
    <contour>
      <point x="419" y="0" type="line"/>
      <point x="419" y="509" type="line"/>
      <point x="319" y="509" type="line"/>
      <point x="319" y="0" type="line"/>
    </contour>
    <component base="b.bowl" xOffset="345" xScale="-1"/>
  </outline>
</glyph>
<glyph name="b.bowl" format="1">
  <advance width="304"/>
  <outline>
    <contour>
      <point x="228" y="-8"/>
      <point x="304" y="58"/>
      <point x="304" y="167" type="curve" smooth="yes"/>
      <point x="304" y="343" type="line" smooth="yes"/>
      <point x="304" y="451"/>
      <point x="228" y="517"/>
      <point x="134" y="517" type="curve" smooth="yes"/>
      <point x="31" y="517"/>
      <point x="-24" y="435"/>
      <point x="-24" y="310" type="curve" smooth="yes"/>
      <point x="-24" y="199" type="line" smooth="yes"/>
      <point x="-24" y="73"/>
      <point x="31" y="-8"/>
      <point x="133" y="-8" type="curve" smooth="yes"/>
    </contour>
    <contour>
      <point x="61" y="88"/>
      <point x="26" y="123"/>
      <point x="26" y="180" type="curve" smooth="yes"/>
      <point x="26" y="330" type="line" smooth="yes"/>
      <point x="26" y="387"/>
      <point x="61" y="421"/>
      <point x="116" y="421" type="curve" smooth="yes"/>
      <point x="170" y="421"/>
      <point x="204" y="387"/>
      <point x="204" y="330" type="curve" smooth="yes"/>
      <point x="204" y="180" type="line" smooth="yes"/>
      <point x="204" y="122"/>
      <point x="170" y="88"/>
      <point x="116" y="88" type="curve" smooth="yes"/>
    </contour>
  </outline>
</glyph>
<glyph name="n.curve" format="1">
  <advance width="298"/>
  <outline>
    <contour>
      <point x="298" y="0" type="line"/>
      <point x="298" y="348" type="line" smooth="yes"/>
      <point x="298" y="452"/>
      <point x="226" y="517"/>
      <point x="138" y="517" type="curve" smooth="yes"/>
      <point x="40" y="517"/>
      <point x="-6" y="463"/>
      <point x="-6" y="308" type="curve"/>
      <point x="26" y="341" type="line"/>
      <point x="26" y="397"/>
      <point x="61" y="431"/>
      <point x="113" y="431" type="curve" smooth="yes"/>
      <point x="165" y="431"/>
      <point x="199" y="397"/>
      <point x="199" y="340" type="curve" smooth="yes"/>
      <point x="199" y="0" type="line"/>
    </contour>
  </outline>
</glyph>
